<?xml version="1.0" encoding="utf-8"?>
<!-- Generator: Adobe Illustrator 25.0.1, SVG Export Plug-In . SVG Version: 6.00 Build 0)  -->
<svg version="1.1" id="Layer_1" xmlns="http://www.w3.org/2000/svg" xmlns:xlink="http://www.w3.org/1999/xlink" x="0px" y="0px"
	 viewBox="0 0 24 24" style="enable-background:new 0 0 24 24;" xml:space="preserve">
<style type="text/css">
	.st0{fill:#39A96B;}
</style>
<path class="st0" d="M12,2.7c-4.1,0-7.4,3.3-7.4,7.4c0,4.9,5,9.5,6.8,11c0.4,0.3,0.9,0.3,1.2,0c1.8-1.5,6.8-6.4,6.8-11
	C19.4,6,16.1,2.7,12,2.7z M12,14.7c-2.5,0-4.6-2.1-4.6-4.6c0-2.5,2.1-4.6,4.6-4.6c2.5,0,4.6,2.1,4.6,4.6
	C16.6,12.7,14.5,14.7,12,14.7z"/>
</svg>
