<?xml version="1.0" encoding="utf-8"?>
<!-- Generator: Adobe Illustrator 25.0.1, SVG Export Plug-In . SVG Version: 6.00 Build 0)  -->
<svg version="1.1" id="Layer_1" xmlns="http://www.w3.org/2000/svg" xmlns:xlink="http://www.w3.org/1999/xlink" x="0px" y="0px"
	 viewBox="0 0 20 20" style="enable-background:new 0 0 20 20;" xml:space="preserve">
<style type="text/css">
	.st0{fill:#FFFFFF;}
</style>
<path class="st0" d="M10,0C7.6,0,5.6,2,5.6,4.4c0,2.9,3,5.7,4.1,6.6c0.2,0.2,0.5,0.2,0.7,0c1.1-0.9,4.1-3.8,4.1-6.6
	C14.4,2,12.4,0,10,0z M10,7.2C8.5,7.2,7.3,6,7.3,4.5C7.3,3,8.5,1.7,10,1.7c1.5,0,2.7,1.2,2.7,2.7C12.7,6,11.5,7.2,10,7.2z"/>
</svg>
